
 
http://www.imdb.com/title/tt1905041/



Plot: Agent Luke Hobbs enlists Dominic Toretto and his team to bring down former Special Ops soldier Owen Shaw, leader of a unit specializing in vehicular warfare. 



Director:
 Justin Lin 

Writers:
 Chris Morgan (screenplay), Gary Scott Thompson (characters) 

Stars:
 Dwayne Johnson, Vin Diesel, Paul Walker

Genres:
  Action |  Crime |  Thriller 

Country:
 USA 

Language:
 English 



Fast And Furious 6 2013 TS Xvid Mp3-KingStoner
 Source Video: TS.LD.German.iNTERNAL.XViD-SKA
 Source Audio: English-Immagical


Media Info:
 General
 Complete name                            : private/rtorrent/data/Fast And Furious 6 2013 TS Xvid Mp3-KingStoner.avi
 Format                                   : AVI
 Format/Info                              : Audio Video Interleave
 File size                                : 1 021 MiB
 Duration                                 : 2h 0mn
 Overall bit rate                         : 1 182 Kbps
 Writing application                      : MEncoder SVN-r33883(20110719-gcc4.5.2)
 Writing library                          : MPlayer

 Video
 ID                                       : 0
 Format                                   : MPEG-4 Visual
 Format profile                           : Advanced Simple@L5
 Format settings, BVOP                    : 2
 Format settings, QPel                    : No
 Format settings, GMC                     : No warppoints
 Format settings, Matrix                  : Default (H.263)
 Codec ID                                 : XVID
 Codec ID/Hint                            : XviD
 Duration                                 : 2h 0mn
 Bit rate                                 : 1 041 Kbps
 Width                                    : 640 pixels
 Height                                   : 272 pixels
 Display aspect ratio                     : 2.35:1
 Frame rate                               : 30.000 fps
 Color space                              : YUV
 Chroma subsampling                       : 4:2:0
 Bit depth                                : 8 bits
 Scan type                                : Progressive
 Compression mode                         : Lossy
 Bits/(Pixel*Frame)                       : 0.199
 Stream size                              : 899 MiB (88%)
 Writing library                          : XviD 1.2.1 (UTC 2008-12-04)

 Audio
 ID                                       : 1
 Format                                   : MPEG Audio
 Format version                           : Version 1
 Format profile                           : Layer 3
 Mode                                     : Joint stereo
 Mode extension                           : MS Stereo
 Codec ID                                 : 55
 Codec ID/Hint                            : MP3
 Duration                                 : 2h 0mn
 Bit rate mode                            : Constant
 Bit rate                                 : 128 Kbps
 Channel(s)                               : 2 channels
 Sampling rate                            : 44.1 KHz
 Compression mode                         : Lossy
 Delay relative to video                  : 33ms
 Stream size                              : 111 MiB (11%)
 Alignment                                : Aligned on interleaves
 Interleave, duration                     : 26 ms (0.78 video frame)
 Interleave, preload duration             : 522 ms
 Writing library                          : LAME3.98.4



    	http://addpix.net/viewer.php?file=26698469360262715708.jpg
    	http://addpix.net/viewer.php?file=94122396599982217463.jpg
    	http://addpix.net/viewer.php?file=08583212381163467406.jpg
    	http://addpix.net/viewer.php?file=41288308813725650194.jpg
    	http://addpix.net/viewer.php?file=45725231691964081056.jpg